<svg xmlns="http://www.w3.org/2000/svg" viewBox="0 0 64 64" width="64" height="64" role="img" aria-label="Sans Mushroom Box favicon">
  <path d="M32 6C17 6 7 16 7 27c0 5 3 8 7 8h36c4 0 7-3 7-8 0-11-10-21-25-21Z" fill="#7a4a22"/>
  <path d="M32 9c-12 0-20 8-22 16 6-4 13-6 22-6s16 2 22 6c-2-8-10-16-22-16Z" fill="#b96c33"/>
  <circle cx="23" cy="22" r="3.6" fill="#f7efe0"/>
  <circle cx="40" cy="19" r="3" fill="#f7efe0"/>
  <circle cx="33" cy="27" r="2.6" fill="#f7efe0"/>
  <path d="M25 35h14c0 9-3 19-7 19s-7-10-7-19Z" fill="#efe0c5"/>
  <path d="M25 35h14c0 4-2 7-3 8H28c-1-1-3-4-3-8Z" fill="#f4e8d6"/>
</svg>
